<svg xmlns="http://www.w3.org/2000/svg" fill="none" height="48" viewBox="0 0 49 48" width="49">
  <g clip-path="url(#clip0_730_15084)">
    <path
      d="M46.9985 22.5009H27.999C27.171 22.5009 26.4991 21.8289 26.4991 21.0009C26.4991 20.173 27.171 19.501 27.999 19.501H46.9985C47.8265 19.501 48.4985 20.173 48.4985 21.0009C48.4985 21.8289 47.8265 22.5009 46.9985 22.5009Z"
      fill="#0C3C26"
    />
    <path
      d="M39.4988 30.0001C39.1147 30.0001 38.7309 29.854 38.4386 29.5603C37.8527 28.974 37.8527 28.0241 38.4386 27.4381L44.8786 20.9985L38.4386 14.5585C37.8527 13.9726 37.8527 13.0227 38.4386 12.4368C39.0249 11.8505 39.9749 11.8505 40.5608 12.4368L48.0605 19.9366C48.6465 20.5225 48.6465 21.4724 48.0605 22.0583L40.5608 29.5581C40.2667 29.854 39.8829 30.0001 39.4988 30.0001Z"
      fill="#0C3C26"
    />
    <path
      d="M16.4996 48.0005C16.0715 48.0005 15.6654 47.9404 15.2597 47.8144L3.22379 43.8045C1.58615 43.2325 0.5 41.7066 0.5 40.0008V4.00195C0.5 1.79596 2.29401 0.00195312 4.5 0.00195312C4.92772 0.00195312 5.33383 0.0620099 5.73995 0.187982L17.7755 4.19787C19.4135 4.76987 20.4993 6.29582 20.4993 8.00158V44.0005C20.4993 46.2064 18.7056 48.0005 16.4996 48.0005ZM4.5 3.00186C3.94997 3.00186 3.49991 3.45192 3.49991 4.00195V40.0008C3.49991 40.4267 3.78591 40.8226 4.19385 40.9647L16.1733 44.9566C16.2594 44.9844 16.3715 45.0005 16.4996 45.0005C17.0497 45.0005 17.4993 44.5505 17.4993 44.0005V8.00158C17.4993 7.57569 17.2133 7.17983 16.8054 7.03774L4.82591 3.0458C4.73986 3.01797 4.6278 3.00186 4.5 3.00186Z"
      fill="#0C3C26"
    />
    <path
      d="M30.9989 16.0016C30.1709 16.0016 29.499 15.3296 29.499 14.5016V5.5019C29.499 4.12389 28.3773 3.00186 26.9993 3.00186H4.49998C3.67201 3.00186 3.00003 2.32988 3.00003 1.50191C3.00003 0.673929 3.67201 0.00195312 4.49998 0.00195312H26.9993C30.0332 0.00195312 32.4989 2.46794 32.4989 5.5019V14.5016C32.4989 15.3296 31.8269 16.0016 30.9989 16.0016Z"
      fill="#0C3C26"
    />
    <path
      d="M26.9993 42.0006H18.9993C18.1713 42.0006 17.4994 41.3286 17.4994 40.5006C17.4994 39.6727 18.1713 39.0007 18.9993 39.0007H26.9993C28.3773 39.0007 29.499 37.8787 29.499 36.5006V27.5009C29.499 26.673 30.171 26.001 30.9989 26.001C31.8269 26.001 32.4989 26.673 32.4989 27.5009V36.5006C32.4989 39.5346 30.0333 42.0006 26.9993 42.0006Z"
      fill="#0C3C26"
    />
  </g>
  <defs>
    <clipPath id="clip0_730_15084">
      <rect fill="white" height="48" transform="translate(0.5)" width="48" />
    </clipPath>
  </defs>
</svg>
