<svg xmlns="http://www.w3.org/2000/svg" fill="none" height="48" viewBox="0 0 49 48" width="49">
  <g clip-path="url(#clip0_1270_6655)">
    <path
      d="M6.03703 31.9961L0.829516 44.0686C0.379809 45.1119 0.58269 46.2754 1.35906 47.1049C1.90618 47.689 2.63677 47.9999 3.39556 47.9999C3.71379 47.9999 4.03752 47.9449 4.35393 47.8325L12.2817 45.0145L6.03703 31.9961Z"
      fill="#0C3C26"
    />
    <path d="M10.9777 20.541L7.51367 28.5724L14.9463 44.0671L21.1971 41.8453L10.9777 20.541Z" fill="#0C3C26" />
    <path
      d="M45.8318 9.39331C45.0627 9.50354 44.5288 10.2158 44.639 10.9845C44.6793 11.2676 44.7123 11.5426 44.7416 11.814C45.0759 14.9165 44.6753 17.2683 43.5195 18.9811C42.2619 20.844 39.9306 21.9368 37.7184 21.6998C37.2013 21.6442 36.6922 21.5164 36.2059 21.3263C36.2949 21.1729 36.3773 21.0157 36.4527 20.8557C36.8596 19.9944 37.0284 19.0031 36.9625 18.019C36.912 17.2683 36.7252 16.5223 36.4011 15.8408C35.7547 14.4814 34.6664 13.552 33.3359 13.2235C31.8681 12.8613 30.2499 13.8369 29.728 15.3981C29.3874 16.4169 29.4772 17.5822 29.9946 18.8613C30.4245 19.9244 31.0541 20.8843 31.8293 21.6995C31.1291 22.0726 30.3059 22.3436 29.401 22.4865C28.6338 22.6077 28.1101 23.3276 28.2313 24.0949C28.3404 24.7877 28.9385 25.2817 29.6185 25.2817C29.6914 25.2817 29.7654 25.2762 29.8393 25.2645C31.5199 24.999 33.0217 24.3842 34.2134 23.5078C35.2036 24.0319 36.2901 24.375 37.4188 24.4959C37.7261 24.5288 38.0329 24.5449 38.3398 24.5449C41.297 24.5449 44.1721 23.0409 45.8504 20.5543C47.5156 18.0872 48.0298 14.8264 47.423 10.5861C47.3127 9.81738 46.5997 9.28308 45.8318 9.39331ZM32.3955 16.2894C32.4526 16.1188 32.6105 15.9858 32.6877 15.9609C33.3407 16.1349 33.7025 16.715 33.8611 17.0486C34.2511 17.8685 34.2701 18.8917 33.9098 19.6553C33.8951 19.6864 33.8797 19.7175 33.864 19.7483C33.3282 19.1854 32.8932 18.5277 32.602 17.807C32.3464 17.1749 32.275 16.6501 32.3955 16.2894Z"
      fill="#0C3C26"
    />
    <path
      d="M38.3063 29.8762C38.3063 28.8992 37.5233 28.1074 36.5576 28.1074C35.5916 28.1074 34.8086 28.8992 34.8086 29.8762C34.8086 30.8529 35.5916 31.6447 36.5576 31.6447C37.5233 31.6447 38.3063 30.8529 38.3063 29.8762Z"
      fill="#0C3C26"
    />
    <path
      d="M40.9186 10.8016C40.9186 9.82495 40.1356 9.0332 39.1696 9.0332C38.2039 9.0332 37.4209 9.82495 37.4209 10.8016C37.4209 11.7783 38.2039 12.5701 39.1696 12.5701C40.1356 12.5701 40.9186 11.7783 40.9186 10.8016Z"
      fill="#0C3C26"
    />
    <path
      d="M44.4399 8.00574C46.6295 8.00574 48.4111 6.21021 48.4111 4.00305C48.4111 1.79553 46.6299 0 44.4399 0C42.25 0 40.4688 1.79553 40.4688 4.00305C40.4688 6.21021 42.2504 8.00574 44.4399 8.00574Z"
      fill="#0C3C26"
    />
    <path
      d="M25.8082 16.8446C25.8082 15.8679 25.0253 15.0762 24.0592 15.0762C23.0935 15.0762 22.3105 15.8679 22.3105 16.8446C22.3105 17.8213 23.0935 18.613 24.0592 18.613C25.0253 18.613 25.8082 17.8213 25.8082 16.8446Z"
      fill="#0C3C26"
    />
    <path
      d="M34.9219 3.7782C34.9219 2.80151 34.1385 2.00977 33.1729 2.00977C32.2068 2.00977 31.4238 2.80151 31.4238 3.7782C31.4238 4.75525 32.2068 5.547 33.1729 5.547C34.1385 5.547 34.9219 4.75525 34.9219 3.7782Z"
      fill="#0C3C26"
    />
    <path
      d="M23.4102 9.58728H24.0675V10.2699C24.0675 11.0466 24.697 11.6761 25.4738 11.6761C26.2505 11.6761 26.88 11.0466 26.88 10.2699V9.58728H27.5374C28.3141 9.58728 28.9436 8.9574 28.9436 8.18103C28.9436 7.4043 28.3141 6.77478 27.5374 6.77478H26.88V6.0918C26.88 5.31543 26.2505 4.68555 25.4738 4.68555C24.697 4.68555 24.0675 5.31543 24.0675 6.0918V6.77478H23.4102C22.6334 6.77478 22.0039 7.4043 22.0039 8.18103C22.0039 8.9574 22.6334 9.58728 23.4102 9.58728Z"
      fill="#0C3C26"
    />
    <path
      d="M14.68 12.9831C14.1548 12.4107 13.2653 12.3723 12.6929 12.8971C12.1205 13.4222 12.0824 14.3117 12.6072 14.8841L13.1587 15.4855L12.4549 17.1177L23.8623 40.8987L33.3695 37.5193L33.772 37.958C34.0496 38.2605 34.4286 38.4136 34.8087 38.4136C35.1486 38.4136 35.4888 38.2912 35.7591 38.0437C36.3314 37.5185 36.3695 36.629 35.8448 36.057L14.68 12.9831Z"
      fill="#0C3C26"
    />
  </g>
  <defs>
    <clipPath id="clip0_1270_6655">
      <rect fill="white" height="48" transform="translate(0.5)" width="48" />
    </clipPath>
  </defs>
</svg>
