<svg xmlns="http://www.w3.org/2000/svg" fill="none" height="14" viewBox="0 0 12 14" width="12">
  <path
    d="M6.9953 12.9961L6.9953 2.99609L10.2853 6.28609C10.3783 6.37982 10.4889 6.45422 10.6107 6.50499C10.7326 6.55575 10.8633 6.58189 10.9953 6.58189C11.1273 6.58189 11.258 6.55575 11.3799 6.50499C11.5017 6.45422 11.6123 6.37982 11.7053 6.28609C11.8916 6.09873 11.9961 5.84528 11.9961 5.58109C11.9961 5.31691 11.8916 5.06346 11.7053 4.87609L7.4053 0.586094C7.03195 0.210506 6.52488 -0.00167346 5.9953 -0.00390625C5.4692 0.000960337 4.9662 0.212938 4.5953 0.586094L0.2953 4.87609C0.202719 4.96933 0.129408 5.07989 0.0795546 5.20146C0.0297012 5.32304 0.00428009 5.45323 0.00474453 5.58463C0.00520897 5.71602 0.0315495 5.84604 0.0822611 5.96726C0.132973 6.08847 0.207063 6.19851 0.300302 6.29109C0.39354 6.38368 0.504102 6.45699 0.625672 6.50684C0.747243 6.55669 0.877442 6.58211 1.00884 6.58165C1.14023 6.58119 1.27025 6.55485 1.39146 6.50414C1.51268 6.45342 1.62272 6.37933 1.7153 6.28609L4.9953 2.99609L4.9953 12.9961C4.9953 13.2613 5.10066 13.5157 5.28819 13.7032C5.47573 13.8907 5.73008 13.9961 5.9953 13.9961C6.26052 13.9961 6.51487 13.8907 6.70241 13.7032C6.88994 13.5157 6.9953 13.2613 6.9953 12.9961Z"
    fill="#FAF3E9"
  />
</svg>
