<svg xmlns="http://www.w3.org/2000/svg" fill="none" height="14" viewBox="0 0 12 14" width="12">
  <path
    d="M6.99921 13L6.99921 3L10.2892 6.29C10.3822 6.38373 10.4928 6.45812 10.6146 6.50889C10.7365 6.55966 10.8672 6.5858 10.9992 6.5858C11.1312 6.5858 11.2619 6.55966 11.3838 6.50889C11.5056 6.45812 11.6162 6.38373 11.7092 6.29C11.8955 6.10264 12 5.84919 12 5.585C12 5.32082 11.8955 5.06736 11.7092 4.88L7.40921 0.59C7.03586 0.214412 6.52878 0.00223279 5.99921 0C5.4731 0.00486659 4.97011 0.216844 4.59921 0.59L0.299207 4.88C0.206625 4.97324 0.133314 5.0838 0.0834608 5.20537C0.0336075 5.32694 0.00818634 5.45714 0.00865078 5.58854C0.00911522 5.71993 0.0354557 5.84995 0.0861673 5.97116C0.136879 6.09238 0.210969 6.20242 0.304208 6.295C0.397447 6.38758 0.508008 6.46089 0.629579 6.51075C0.751149 6.5606 0.881349 6.58602 1.01274 6.58556C1.14414 6.58509 1.27415 6.55875 1.39537 6.50804C1.51659 6.45733 1.62663 6.38324 1.71921 6.29L4.99921 3L4.99921 13C4.99921 13.2652 5.10456 13.5196 5.2921 13.7071C5.47964 13.8946 5.73399 14 5.99921 14C6.26442 14 6.51878 13.8946 6.70631 13.7071C6.89385 13.5196 6.99921 13.2652 6.99921 13Z"
    fill="#0C3C26"
    fill-opacity="0.2"
  />
</svg>
