<svg xmlns="http://www.w3.org/2000/svg" fill="none" height="16" viewBox="0 0 16 16" width="16">
  <path
    d="M12.6667 2.66667H11.9327C11.6227 1.14733 10.276 0 8.66667 0H3.33333C1.49533 0 0 1.49533 0 3.33333V11.9027C0 12.432 0.29 12.916 0.756 13.1653C0.968 13.2793 1.20067 13.3353 1.43267 13.3353C1.71 13.3353 1.98667 13.2547 2.226 13.0953L4.19267 11.784C4.65333 13.074 5.88667 14 7.33333 14H11.1313L13.774 15.762C14.014 15.922 14.29 16.0027 14.5673 16.0027C14.7993 16.0027 15.0313 15.946 15.244 15.832C15.7107 15.5827 16 15.0987 16 14.5693V6C16 4.162 14.5047 2.66667 12.6667 2.66667ZM1.48667 11.986C1.474 11.994 1.43667 12.018 1.38533 11.9907C1.33267 11.9627 1.33267 11.918 1.33267 11.9033V3.33333C1.33267 2.23067 2.23 1.33333 3.33267 1.33333H8.666C9.76867 1.33333 10.666 2.23067 10.666 3.33333V8C10.666 9.10267 9.76867 10 8.666 10H4.666C4.448 10 4.30533 10.106 4.28933 10.1167L1.48667 11.986ZM14.6667 14.57C14.6667 14.584 14.6667 14.6293 14.614 14.6573C14.5613 14.6847 14.5253 14.6607 14.5133 14.6527L11.7033 12.7787C11.594 12.706 11.4653 12.6667 11.3333 12.6667H7.33333C6.464 12.6667 5.72333 12.1093 5.448 11.3333H8.66667C10.5047 11.3333 12 9.838 12 8V4H12.6667C13.7693 4 14.6667 4.89733 14.6667 6V14.57Z"
    fill="#0C3C26"
    fill-opacity="0.5"
  />
</svg>
