<svg xmlns="http://www.w3.org/2000/svg" fill="none" height="24" viewBox="0 0 24 24" width="24">
  <g clip-path="url(#clip0_1167_5275)">
    <path
      d="M4.9682 14.3947L3.55399 12.9805C3.42217 12.8497 3.31911 12.6929 3.25142 12.52C3.18372 12.3471 3.15288 12.162 3.16087 11.9765C3.16885 11.791 3.21549 11.6092 3.2978 11.4428C3.38011 11.2763 3.49627 11.1289 3.63884 11.01C5.24705 9.71703 7.13613 8.81931 9.15428 8.38899C11.017 7.97376 12.9484 7.97376 14.8111 8.38899C16.8376 8.8221 18.7336 9.72648 20.3454 11.0289C20.4876 11.1474 20.6034 11.2943 20.6857 11.4601C20.768 11.626 20.8148 11.8071 20.8232 11.992C20.8317 12.1769 20.8015 12.3616 20.7347 12.5342C20.6678 12.7068 20.5658 12.8636 20.435 12.9946L19.0208 14.4088C18.7942 14.6399 18.4914 14.7806 18.1688 14.8049C17.8462 14.8292 17.5257 14.7353 17.2671 14.5408C16.7549 14.1479 16.1998 13.8143 15.6125 13.5462C15.3804 13.4409 15.1833 13.2712 15.0446 13.0573C14.9059 12.8434 14.8314 12.5943 14.83 12.3394V11.142C12.9787 10.6329 11.0244 10.6329 9.17313 11.142V12.3394C9.17171 12.5943 9.09723 12.8434 8.95854 13.0573C8.81985 13.2712 8.62275 13.4409 8.3906 13.5462C7.80331 13.8143 7.24824 14.1479 6.73597 14.5408C6.47467 14.7375 6.1502 14.8313 5.82426 14.8043C5.49832 14.7774 5.19366 14.6316 4.9682 14.3947Z"
      stroke="#0C3C26"
      stroke-linecap="round"
      stroke-linejoin="round"
    />
  </g>
  <defs>
    <clipPath id="clip0_1167_5275">
      <rect fill="white" height="16" transform="translate(23.3145 12) rotate(135)" width="16" />
    </clipPath>
  </defs>
</svg>
