<svg xmlns="http://www.w3.org/2000/svg" fill="none" height="16" viewBox="0 0 16 16" width="16">
  <path
    d="M8 0.666016C7.46957 0.666016 6.96086 0.876729 6.58579 1.2518C6.21071 1.62687 6 2.13558 6 2.66602V7.99935C6 8.52978 6.21071 9.03849 6.58579 9.41356C6.96086 9.78864 7.46957 9.99935 8 9.99935C8.53043 9.99935 9.03914 9.78864 9.41421 9.41356C9.78929 9.03849 10 8.52978 10 7.99935V2.66602C10 2.13558 9.78929 1.62687 9.41421 1.2518C9.03914 0.876729 8.53043 0.666016 8 0.666016Z"
    stroke="black"
    stroke-linecap="round"
    stroke-linejoin="round"
  />
  <path
    d="M12.6673 6.66602V7.99935C12.6673 9.23703 12.1757 10.424 11.3005 11.2992C10.4253 12.1744 9.23833 12.666 8.00065 12.666C6.76297 12.666 5.57599 12.1744 4.70082 11.2992C3.82565 10.424 3.33398 9.23703 3.33398 7.99935V6.66602"
    stroke="black"
    stroke-linecap="round"
    stroke-linejoin="round"
  />
  <path d="M8 12.666V15.3327" stroke="black" stroke-linecap="round" stroke-linejoin="round" />
  <path d="M5.33398 15.334H10.6673" stroke="black" stroke-linecap="round" stroke-linejoin="round" />
</svg>
