<svg xmlns="http://www.w3.org/2000/svg" fill="none" height="16" viewBox="0 0 16 16" width="16">
  <path
    d="M7.99989 7.71206C7.05639 7.71206 6.25397 7.38148 5.59264 6.72031C4.93147 6.05898 4.60089 5.25656 4.60089 4.31306C4.60089 3.3694 4.93147 2.56698 5.59264 1.90581C6.25397 1.24465 7.05639 0.914062 7.99989 0.914062C8.94339 0.914062 9.74581 1.24465 10.4071 1.90581C11.0683 2.56698 11.3989 3.3694 11.3989 4.31306C11.3989 5.25656 11.0683 6.05898 10.4071 6.72031C9.74581 7.38148 8.94339 7.71206 7.99989 7.71206ZM0.681641 13.6266V12.9416C0.681641 12.4651 0.809141 12.027 1.06414 11.6273C1.31931 11.2276 1.66664 10.9189 2.10614 10.7011C3.08297 10.2299 4.06256 9.87431 5.04489 9.63431C6.02706 9.39448 7.01214 9.27456 8.00014 9.27456C8.98797 9.27456 9.97339 9.39448 10.9564 9.63431C11.9392 9.87398 12.9187 10.2295 13.8949 10.7008C14.3341 10.9186 14.6811 11.2275 14.9359 11.6273C15.1907 12.027 15.3181 12.465 15.3181 12.9413V13.6266C15.3181 14.0206 15.1803 14.3554 14.9046 14.6311C14.6288 14.9069 14.2939 15.0448 13.8999 15.0448H2.09989C1.70589 15.0448 1.37097 14.9069 1.09514 14.6311C0.819474 14.3554 0.681641 14.0206 0.681641 13.6266Z"
    fill="#0C3C26"
  />
</svg>
