<svg xmlns="http://www.w3.org/2000/svg" fill="none" height="16" viewBox="0 0 15 16" width="15">
  <path
    d="M11.3333 11.3333C10.9647 11.3333 10.6667 11.0353 10.6667 10.6667V5.33333C10.6667 4.96467 10.9647 4.66667 11.3333 4.66667C11.702 4.66667 12 4.96467 12 5.33333V10.6667C12 11.0353 11.702 11.3333 11.3333 11.3333ZM9.33333 15.3333V0.666667C9.33333 0.298 9.03533 0 8.66667 0C8.298 0 8 0.298 8 0.666667V15.3333C8 15.702 8.298 16 8.66667 16C9.03533 16 9.33333 15.702 9.33333 15.3333ZM14.6667 12.6667V3.33333C14.6667 2.96467 14.3687 2.66667 14 2.66667C13.6313 2.66667 13.3333 2.96467 13.3333 3.33333V12.6667C13.3333 13.0353 13.6313 13.3333 14 13.3333C14.3687 13.3333 14.6667 13.0353 14.6667 12.6667ZM6.66667 12.6667V3.33333C6.66667 2.96467 6.36867 2.66667 6 2.66667C5.63133 2.66667 5.33333 2.96467 5.33333 3.33333V12.6667C5.33333 13.0353 5.63133 13.3333 6 13.3333C6.36867 13.3333 6.66667 13.0353 6.66667 12.6667ZM4 10.6667V5.33333C4 4.96467 3.702 4.66667 3.33333 4.66667C2.96467 4.66667 2.66667 4.96467 2.66667 5.33333V10.6667C2.66667 11.0353 2.96467 11.3333 3.33333 11.3333C3.702 11.3333 4 11.0353 4 10.6667ZM1.33333 9.33333V6.66667C1.33333 6.298 1.03533 6 0.666667 6C0.298 6 0 6.298 0 6.66667V9.33333C0 9.702 0.298 10 0.666667 10C1.03533 10 1.33333 9.702 1.33333 9.33333Z"
    fill="#0C3C26"
  />
</svg>
